<svg width="143" height="129" viewBox="0 0 143 129" fill="none" xmlns="http://www.w3.org/2000/svg">
<rect x="2.5" y="50.5" width="138" height="76" rx="17.5" fill="#0036A0" stroke="black" stroke-width="5"/>
<rect x="14.5" y="49.5" width="114" height="55" rx="17.5" fill="#0BA5CF" stroke="black" stroke-width="5"/>
<path d="M27.112 73.744H34.184C35.4213 73.744 36.04 74.2773 36.04 75.344V76.352C36.04 77.1627 35.5653 77.6267 34.616 77.744C35.608 77.872 36.104 78.4 36.104 79.328V80.384C36.104 81.4613 35.2933 82 33.672 82H27.112V73.744ZM29 78.416V80.512H33.384C33.7253 80.512 33.96 80.464 34.088 80.368C34.2373 80.2613 34.312 80.064 34.312 79.776V79.152C34.312 78.864 34.2373 78.6667 34.088 78.56C33.96 78.464 33.7253 78.416 33.384 78.416H29ZM29 75.088V77.056H33.384C33.9707 77.056 34.264 76.8587 34.264 76.464V75.68C34.264 75.2853 33.9707 75.088 33.384 75.088H29ZM44.3111 79.28L42.7271 76.464L41.2071 79.28H44.3111ZM42.0231 75.232H43.6071L47.6871 82H45.8311L44.9831 80.512H40.5031L39.6551 82H38.0071L42.0231 75.232ZM50.6869 76.48V80.704H55.1349V79.264L56.7989 79.6V80.4C56.7989 81.0293 56.6709 81.456 56.4149 81.68C56.1695 81.8933 55.7055 82 55.0229 82H50.7989C50.1162 82 49.6522 81.888 49.4069 81.664C49.1615 81.44 49.0389 81.0187 49.0389 80.4V76.832C49.0389 76.2027 49.1669 75.776 49.4229 75.552C49.6575 75.3387 50.1162 75.232 50.7989 75.232H55.0229C55.7055 75.232 56.1695 75.3387 56.4149 75.552C56.6709 75.776 56.7989 76.2027 56.7989 76.832V77.488L55.1349 77.728V76.48H50.6869ZM59.3198 75.232H60.9838V77.968L64.9358 75.232H67.3198L62.6478 78.368L67.8478 82H65.2398L60.9838 78.944V82H59.3198V75.232ZM70.6656 76.448V77.872H75.0656C75.7483 77.872 76.2123 77.9787 76.4576 78.192C76.703 78.416 76.8256 78.8427 76.8256 79.472V80.4C76.8256 81.0293 76.703 81.456 76.4576 81.68C76.2123 81.8933 75.7483 82 75.0656 82H70.6816C69.999 82 69.5296 81.8933 69.2736 81.68C69.0176 81.456 68.8896 81.0293 68.8896 80.4V80.208L70.3616 79.936V80.736H75.3376V79.184H70.9536C70.2816 79.184 69.8176 79.0773 69.5616 78.864C69.3056 78.64 69.1776 78.2133 69.1776 77.584V76.832C69.1776 76.2027 69.3056 75.776 69.5616 75.552C69.8176 75.3387 70.2816 75.232 70.9536 75.232H74.9696C75.6203 75.232 76.0736 75.328 76.3296 75.52C76.607 75.7333 76.7456 76.128 76.7456 76.704V76.864L75.3216 77.168V76.448H70.6656ZM81.131 76.4V78.192H84.891C85.3923 78.192 85.643 78.0107 85.643 77.648V76.944C85.643 76.5813 85.3923 76.4 84.891 76.4H81.131ZM79.499 75.232H85.595C86.1497 75.232 86.5497 75.328 86.795 75.52C87.051 75.7333 87.179 76.0747 87.179 76.544V78.048C87.179 78.9227 86.651 79.36 85.595 79.36H81.131V82H79.499V75.232ZM94.6499 79.28L93.0659 76.464L91.5459 79.28H94.6499ZM92.3619 75.232H93.9459L98.0259 82H96.1699L95.3219 80.512H90.8419L89.9939 82H88.3459L92.3619 75.232ZM101.026 76.48V80.704H105.474V79.264L107.138 79.6V80.4C107.138 81.0293 107.01 81.456 106.754 81.68C106.508 81.8933 106.044 82 105.362 82H101.138C100.455 82 99.991 81.888 99.7456 81.664C99.5003 81.44 99.3776 81.0187 99.3776 80.4V76.832C99.3776 76.2027 99.5056 75.776 99.7616 75.552C99.9963 75.3387 100.455 75.232 101.138 75.232H105.362C106.044 75.232 106.508 75.3387 106.754 75.552C107.01 75.776 107.138 76.2027 107.138 76.832V77.488L105.474 77.728V76.48H101.026ZM109.659 75.232H116.923V76.432H111.323V77.904H114.587V79.072H111.323V80.736H117.003V82H109.659V75.232Z" fill="white"/>
<path d="M4 114.63L15.2148 93.2" stroke="black" stroke-width="5"/>
<path d="M11.5 124.01L19.2631 99.2561" stroke="black" stroke-width="5"/>
<path d="M139.215 113.63L128 92.2" stroke="black" stroke-width="5"/>
<path d="M132.763 124.01L125 99.2561" stroke="black" stroke-width="5"/>
<path d="M70.2322 38.7678C71.2085 39.7441 72.7915 39.7441 73.7678 38.7678L89.6777 22.8579C90.654 21.8816 90.654 20.2986 89.6777 19.3223C88.7014 18.346 87.1184 18.346 86.1421 19.3223L72 33.4645L57.8579 19.3223C56.8816 18.346 55.2986 18.346 54.3223 19.3223C53.346 20.2986 53.346 21.8816 54.3223 22.8579L70.2322 38.7678ZM69.5 1.09278e-07L69.5 37L74.5 37L74.5 -1.09278e-07L69.5 1.09278e-07Z" fill="#B21E22"/>
</svg>
