<svg width="219" height="129" viewBox="0 0 219 129" fill="none" xmlns="http://www.w3.org/2000/svg">
<rect x="2.5" y="50.5" width="88" height="76" rx="17.5" fill="#0036A0" stroke="black" stroke-width="5"/>
<rect x="14.5" y="49.5" width="65" height="55" rx="17.5" fill="#0BA5CF" stroke="black" stroke-width="5"/>
<path d="M28.856 75.216V80.448H34.04V78.672L35.96 79.072V80.048C35.96 80.816 35.8107 81.3333 35.512 81.6C35.2347 81.8667 34.7013 82 33.912 82H28.984C28.1947 82 27.6613 81.8667 27.384 81.6C27.0853 81.3333 26.936 80.816 26.936 80.048V75.696C26.936 74.928 27.0853 74.4107 27.384 74.144C27.6613 73.8773 28.1947 73.744 28.984 73.744H33.912C34.7013 73.744 35.2347 73.8773 35.512 74.144C35.8107 74.4107 35.96 74.928 35.96 75.696V76.48L34.04 76.784V75.216H28.856ZM43.1725 82H41.5245V76.448H38.2605V75.232H46.4525V76.448H43.1725V82ZM48.402 75.232H54.498C55.554 75.232 56.082 75.6693 56.082 76.544V78.144C56.082 79.008 55.554 79.44 54.498 79.44H53.57L56.786 82H54.418L51.586 79.44H50.034V82H48.402V75.232ZM50.034 76.4V78.272H53.794C54.2953 78.272 54.546 78.0907 54.546 77.728V76.944C54.546 76.5813 54.2953 76.4 53.794 76.4H50.034ZM58.6323 75.232H60.2963V80.736H65.6083V82H58.6323V75.232Z" fill="white"/>
<path d="M4 114.63L15.2148 93.2" stroke="black" stroke-width="5"/>
<path d="M11.5 124.01L19.2631 99.2561" stroke="black" stroke-width="5"/>
<path d="M89.2146 113.63L77.9998 92.2" stroke="black" stroke-width="5"/>
<path d="M82.7629 124.01L74.9998 99.2561" stroke="black" stroke-width="5"/>
<rect x="128.5" y="50.5" width="88" height="76" rx="17.5" fill="#0036A0" stroke="black" stroke-width="5"/>
<rect x="140.5" y="49.5" width="65" height="55" rx="17.5" fill="#0BA5CF" stroke="black" stroke-width="5"/>
<path d="M170.856 75.216V80.448H176.04V78.672L177.96 79.072V80.048C177.96 80.816 177.811 81.3333 177.512 81.6C177.235 81.8667 176.701 82 175.912 82H170.984C170.195 82 169.661 81.8667 169.384 81.6C169.085 81.3333 168.936 80.816 168.936 80.048V75.696C168.936 74.928 169.085 74.4107 169.384 74.144C169.661 73.8773 170.195 73.744 170.984 73.744H175.912C176.701 73.744 177.235 73.8773 177.512 74.144C177.811 74.4107 177.96 74.928 177.96 75.696V76.48L176.04 76.784V75.216H170.856Z" fill="white"/>
<path d="M130 114.63L141.215 93.2" stroke="black" stroke-width="5"/>
<path d="M137.5 124.01L145.263 99.2561" stroke="black" stroke-width="5"/>
<path d="M215.215 113.63L204 92.2" stroke="black" stroke-width="5"/>
<path d="M208.763 124.01L201 99.2561" stroke="black" stroke-width="5"/>
<path d="M110.02 87.36H115.18V88.72H110.02V94H108.64V88.72H103.48V87.36H108.64V82.08H110.02V87.36Z" fill="#B21E22"/>
<path d="M108.232 38.7678C109.209 39.7441 110.791 39.7441 111.768 38.7678L127.678 22.8579C128.654 21.8816 128.654 20.2986 127.678 19.3223C126.701 18.346 125.118 18.346 124.142 19.3223L110 33.4645L95.8579 19.3223C94.8816 18.346 93.2986 18.346 92.3223 19.3223C91.346 20.2986 91.346 21.8816 92.3223 22.8579L108.232 38.7678ZM107.5 1.09278e-07L107.5 37L112.5 37L112.5 -1.09278e-07L107.5 1.09278e-07Z" fill="#B21E22"/>
</svg>
