<svg width="93" height="129" viewBox="0 0 93 129" fill="none" xmlns="http://www.w3.org/2000/svg">
<rect x="2.5" y="50.5" width="88" height="76" rx="17.5" fill="#0036A0" stroke="black" stroke-width="5"/>
<rect x="14.5" y="49.5" width="65" height="55" rx="17.5" fill="#0BA5CF" stroke="black" stroke-width="5"/>
<path d="M33.112 73.744H38.424C39.9493 73.744 41.1227 74.1013 41.944 74.816C42.744 75.5307 43.144 76.5333 43.144 77.824C43.144 79.4347 42.536 80.6133 41.32 81.36C40.6267 81.7867 39.496 82 37.928 82H33.112V73.744ZM37.512 80.448C38.7813 80.448 39.6933 80.2613 40.248 79.888C40.856 79.4827 41.16 78.784 41.16 77.792C41.16 76.0747 40.2533 75.216 38.44 75.216H35.032V80.448H37.512ZM45.8749 75.232H53.1389V76.432H47.5389V77.904H50.8029V79.072H47.5389V80.736H53.2189V82H45.8749V75.232ZM55.4333 75.232H57.0973V80.736H62.4093V82H55.4333V75.232Z" fill="white"/>
<path d="M4 114.63L15.2148 93.2" stroke="black" stroke-width="5"/>
<path d="M11.5 124.01L19.2631 99.2561" stroke="black" stroke-width="5"/>
<path d="M89.2146 113.63L77.9998 92.2" stroke="black" stroke-width="5"/>
<path d="M82.7629 124.01L74.9998 99.2561" stroke="black" stroke-width="5"/>
<path d="M45.2322 38.7678C46.2085 39.7441 47.7915 39.7441 48.7678 38.7678L64.6777 22.8579C65.654 21.8816 65.654 20.2986 64.6777 19.3223C63.7014 18.346 62.1184 18.346 61.1421 19.3223L47 33.4645L32.8579 19.3223C31.8816 18.346 30.2986 18.346 29.3223 19.3223C28.346 20.2986 28.346 21.8816 29.3223 22.8579L45.2322 38.7678ZM44.5 1.09278e-07L44.5 37L49.5 37L49.5 -1.09278e-07L44.5 1.09278e-07Z" fill="#B21E22"/>
</svg>
