<svg width="116" height="116" viewBox="0 0 116 116" fill="none" xmlns="http://www.w3.org/2000/svg">
<circle cx="58" cy="58" r="58" fill="#973F19"/>
<line x1="58.6464" y1="21.8537" x2="58.6464" y2="32.0488" stroke="white" stroke-width="5"/>
<line x1="58.6464" y1="83.9512" x2="58.6464" y2="94.1463" stroke="white" stroke-width="5"/>
<line x1="85.7692" y1="58.5" x2="72.6154" y2="58.5" stroke="white"/>
<line x1="43.1707" y1="58.6463" x2="32.0488" y2="58.6463" stroke="white" stroke-width="5"/>
<line x1="83.9512" y1="58.6463" x2="73.7561" y2="58.6463" stroke="white" stroke-width="5"/>
<path d="M58.7307 64.5769C55.3205 64.4551 49.2308 61.2885 52.8846 54.7115C57.6346 47.7692 66.0384 54.3461 64.5769 59.0961" stroke="white" stroke-width="5" stroke-linecap="round"/>
<path fill-rule="evenodd" clip-rule="evenodd" d="M58 91C76.2254 91 91 76.2254 91 58C91 51.1824 88.9326 44.8476 85.3905 39.5885C84.6841 38.5396 84.76 37.1265 85.6488 36.2269V36.2269C86.708 35.1547 88.4712 35.2416 89.3256 36.4832C93.5356 42.6006 96 50.0125 96 58C96 78.9868 78.9868 96 58 96C50.1165 96 42.7937 93.5993 36.7228 89.4892C35.5831 88.7176 35.3876 87.1459 36.2274 86.0555V86.0555C37.0724 84.9581 38.6439 84.7659 39.7985 85.5308C45.0159 88.9871 51.2729 91 58 91ZM79.2178 26.4707C80.4651 27.3117 80.571 29.0699 79.5138 30.1401V30.1401C78.6232 31.0416 77.2076 31.133 76.1499 30.4351C70.9429 26.9997 64.705 25 58 25C39.7746 25 25 39.7746 25 58C25 64.7563 27.0304 71.0384 30.5143 76.2694C31.1498 77.2235 31.1522 78.4816 30.4527 79.3899V79.3899C29.45 80.692 27.4912 80.7175 26.5663 79.359C22.4223 73.2721 20 65.9189 20 58C20 37.0132 37.0132 20 58 20C65.8578 20 73.1585 22.385 79.2178 26.4707Z" fill="white"/>
<path fill-rule="evenodd" clip-rule="evenodd" d="M71.2692 58C71.2692 65.3284 65.3284 71.2692 58 71.2692C50.6716 71.2692 44.7308 65.3284 44.7308 58C44.7308 50.6716 50.6716 44.7308 58 44.7308C59.3819 44.7308 60.7145 44.942 61.9671 45.334C63.0745 45.6804 64.3211 45.4608 65.096 44.5972V44.5972C66.1948 43.3724 65.8914 41.4358 64.3485 40.864C62.3711 40.1311 60.2323 39.7308 58 39.7308C47.9102 39.7308 39.7308 47.9102 39.7308 58C39.7308 68.0898 47.9102 76.2692 58 76.2692C68.0898 76.2692 76.2692 68.0898 76.2692 58C76.2692 55.6518 75.8262 53.407 75.0192 51.3448C74.3805 49.7127 72.2815 49.5294 71.1111 50.8339V50.8339C70.3909 51.6365 70.2548 52.789 70.5949 53.8123C71.0324 55.1287 71.2692 56.5367 71.2692 58Z" fill="white"/>
<path fill-rule="evenodd" clip-rule="evenodd" d="M78.6694 71.8366C77.768 70.9958 77.6146 69.6358 78.1862 68.5436C79.8361 65.3913 80.7692 61.8046 80.7692 58C80.7692 45.4249 70.5751 35.2308 58 35.2308C54.0515 35.2308 50.3377 36.2358 47.1006 38.0041C46.0606 38.5722 44.7587 38.48 43.8922 37.6717V37.6717C42.7198 36.5782 42.832 34.6802 44.2233 33.8837C48.2833 31.5594 52.9865 30.2308 58 30.2308C73.3365 30.2308 85.7692 42.6635 85.7692 58C85.7692 62.837 84.5325 67.3852 82.358 71.3456C81.6134 72.7017 79.8007 72.8919 78.6694 71.8366V71.8366ZM72.6342 78.0253C71.7517 77.2021 70.4198 77.125 69.3749 77.7288C66.028 79.6626 62.1432 80.7692 58 80.7692C45.4249 80.7692 35.2308 70.5751 35.2308 58C35.2308 54.0038 36.2603 50.248 38.0685 46.9834C38.6764 45.8861 38.5372 44.495 37.6199 43.6393V43.6393C36.507 42.6013 34.7274 42.7682 33.9636 44.0846C31.5899 48.1761 30.2308 52.9293 30.2308 58C30.2308 73.3365 42.6635 85.7692 58 85.7692C63.2506 85.7692 68.1609 84.312 72.3485 81.7798C73.6981 80.9637 73.7876 79.1011 72.6342 78.0253V78.0253Z" fill="white"/>
</svg>
