<svg width="16" height="15" viewBox="0 0 16 15" fill="none" xmlns="http://www.w3.org/2000/svg">
<path fill-rule="evenodd" clip-rule="evenodd" d="M9.43246 7.50891L15.1771 1.97818C15.5749 1.59513 15.5869 0.962084 15.2039 0.564223C14.8208 0.166362 14.1878 0.154354 13.7899 0.537401L8.02681 6.08595L2.47826 0.322826C2.09521 -0.0750349 1.46216 -0.0870434 1.0643 0.296004C0.666438 0.679052 0.65443 1.3121 1.03748 1.70996L6.60378 7.49153L0.938362 13.1569C0.547838 13.5475 0.547838 14.1806 0.938362 14.5712C1.32889 14.9617 1.96205 14.9617 2.35258 14.5712L8.00943 8.9143L13.6663 14.5712C14.0568 14.9617 14.69 14.9617 15.0805 14.5712C15.471 14.1806 15.471 13.5475 15.0805 13.1569L9.43246 7.50891Z" fill="white"/>
</svg>
