<svg width="35" height="30" viewBox="0 0 35 30" fill="none" xmlns="http://www.w3.org/2000/svg">
<path d="M0 5C0 2.23858 2.23858 0 5 0H30C32.7614 0 35 2.23858 35 5V25C35 27.7614 32.7614 30 30 30H5C2.23858 30 0 27.7614 0 25V5Z" fill="#838383"/>
<path d="M18.7166 14.7929C18.326 14.4024 17.6929 14.4024 17.3024 14.7929L10.9384 21.1569C10.5479 21.5474 10.5479 22.1805 10.9384 22.5711C11.3289 22.9616 11.9621 22.9616 12.3526 22.5711L18.0095 16.9142L23.6663 22.5711C24.0568 22.9616 24.69 22.9616 25.0805 22.5711C25.4711 22.1805 25.4711 21.5474 25.0805 21.1569L18.7166 14.7929ZM19.0095 16.5V15.5H17.0095V16.5H19.0095Z" fill="white"/>
<path d="M17.2796 16.1934C17.6627 16.5912 18.2957 16.6033 18.6936 16.2202L25.1771 9.97809C25.575 9.59505 25.587 8.96199 25.2039 8.56413C24.8209 8.16627 24.1878 8.15426 23.79 8.53731L18.0268 14.0859L12.4783 8.32274C12.0952 7.92488 11.4622 7.91287 11.0643 8.29591C10.6665 8.67896 10.6545 9.31201 11.0375 9.70987L17.2796 16.1934ZM17.0192 14.481L17.0002 15.4809L18.9998 15.5188L19.0188 14.519L17.0192 14.481Z" fill="white"/>
</svg>
