<svg width="62" height="62" viewBox="0 0 62 62" fill="none" xmlns="http://www.w3.org/2000/svg">
<circle cx="31" cy="31" r="31" fill="#B21E22"/>
<g filter="url(#filter0_d_260_2)">
<path d="M13.3435 28.7744C11.6955 29.9804 11.7078 32.4447 13.3678 33.6341L34.2527 48.5985C36.2378 50.0209 39 48.602 39 46.1598L39 15.9127C39 13.4568 36.2103 12.0414 34.2284 13.4917L13.3435 28.7744Z" fill="#B21E22"/>
<path d="M13.3435 28.7744C11.6955 29.9804 11.7078 32.4447 13.3678 33.6341L34.2527 48.5985C36.2378 50.0209 39 48.602 39 46.1598L39 15.9127C39 13.4568 36.2103 12.0414 34.2284 13.4917L13.3435 28.7744Z" stroke="white" stroke-width="3"/>
</g>
<defs>
<filter id="filter0_d_260_2" x="10.615" y="11.4047" width="30.885" height="42.2631" filterUnits="userSpaceOnUse" color-interpolation-filters="sRGB">
<feFlood flood-opacity="0" result="BackgroundImageFix"/>
<feColorMatrix in="SourceAlpha" type="matrix" values="0 0 0 0 0 0 0 0 0 0 0 0 0 0 0 0 0 0 127 0" result="hardAlpha"/>
<feOffset dx="1" dy="3"/>
<feComposite in2="hardAlpha" operator="out"/>
<feColorMatrix type="matrix" values="0 0 0 0 0.278431 0 0 0 0 0.0470588 0 0 0 0 0.0509804 0 0 0 1 0"/>
<feBlend mode="normal" in2="BackgroundImageFix" result="effect1_dropShadow_260_2"/>
<feBlend mode="normal" in="SourceGraphic" in2="effect1_dropShadow_260_2" result="shape"/>
</filter>
</defs>
</svg>
