<svg width="62" height="62" viewBox="0 0 62 62" fill="none" xmlns="http://www.w3.org/2000/svg">
<circle cx="31" cy="31" r="31" fill="#0CA3CC"/>
<g filter="url(#filter0_d_71_320)">
<path d="M47.6565 28.7744C49.3045 29.9804 49.2922 32.4447 47.6322 33.6341L26.7473 48.5985C24.7622 50.0209 22 48.602 22 46.1598L22 15.9127C22 13.4568 24.7897 12.0414 26.7716 13.4917L47.6565 28.7744Z" fill="#0CA3CC"/>
<path d="M47.6565 28.7744C49.3045 29.9804 49.2922 32.4447 47.6322 33.6341L26.7473 48.5985C24.7622 50.0209 22 48.602 22 46.1598L22 15.9127C22 13.4568 24.7897 12.0414 26.7716 13.4917L47.6565 28.7744Z" stroke="white" stroke-width="3"/>
</g>
<defs>
<filter id="filter0_d_71_320" x="20.5" y="11.4047" width="30.885" height="42.2631" filterUnits="userSpaceOnUse" color-interpolation-filters="sRGB">
<feFlood flood-opacity="0" result="BackgroundImageFix"/>
<feColorMatrix in="SourceAlpha" type="matrix" values="0 0 0 0 0 0 0 0 0 0 0 0 0 0 0 0 0 0 127 0" result="hardAlpha"/>
<feOffset dx="1" dy="3"/>
<feComposite in2="hardAlpha" operator="out"/>
<feColorMatrix type="matrix" values="0 0 0 0 0.0388021 0 0 0 0 0.496545 0 0 0 0 0.620833 0 0 0 1 0"/>
<feBlend mode="normal" in2="BackgroundImageFix" result="effect1_dropShadow_71_320"/>
<feBlend mode="normal" in="SourceGraphic" in2="effect1_dropShadow_71_320" result="shape"/>
</filter>
</defs>
</svg>
