<svg width="177" height="181" viewBox="0 0 177 181" fill="none" xmlns="http://www.w3.org/2000/svg">
<circle cx="62.9712" cy="42.5481" r="42.0481" fill="#E95D20" stroke="white"/>
<path d="M29.904 36.0519H32.544V40.4519H40.794V36.0519H43.456V47.4039H40.794V42.5199H32.544V47.4039H29.904V36.0519ZM48.1834 38.0979H58.1714V39.7479H50.4714V41.7719H54.9594V43.3779H50.4714V45.6659H58.2814V47.4039H48.1834V38.0979ZM61.3262 38.0979H63.6142V45.6659H70.9182V47.4039H61.3262V38.0979ZM73.2229 38.0979H75.5109V45.6659H82.8149V47.4039H73.2229V38.0979ZM84.8995 40.2979C84.8995 39.4179 85.0755 38.8312 85.4275 38.5379C85.7502 38.2445 86.3809 38.0979 87.3195 38.0979H94.5135C95.4522 38.0979 96.0829 38.2445 96.4055 38.5379C96.7575 38.8312 96.9335 39.4179 96.9335 40.2979V45.2039C96.9335 46.0692 96.7575 46.6559 96.4055 46.9639C96.0682 47.2572 95.4375 47.4039 94.5135 47.4039H87.3195C86.3809 47.4039 85.7502 47.2572 85.4275 46.9639C85.0755 46.6559 84.8995 46.0692 84.8995 45.2039V40.2979ZM94.6675 45.6219V39.8139H87.1655V45.6219H94.6675Z" fill="white"/>
<circle cx="105.519" cy="120.837" r="58.0673" fill="#1CA4D0" stroke="white" stroke-width="3"/>
<path d="M61.196 123.27L60.14 120.806L62.054 120.036L63.594 123.27H66.014V116.076H57.302V123.27H61.196ZM54.662 116.736C54.662 115.68 54.8673 114.969 55.278 114.602C55.6593 114.235 56.3927 114.052 57.478 114.052H65.838C66.9233 114.052 67.6567 114.235 68.038 114.602C68.4487 114.969 68.654 115.68 68.654 116.736V122.72C68.654 123.776 68.4487 124.487 68.038 124.854C67.6567 125.221 66.9233 125.404 65.838 125.404H64.606L66.036 128.33H63.418L62.142 125.404H57.478C56.3927 125.404 55.6593 125.221 55.278 124.854C54.8673 124.487 54.662 123.776 54.662 122.72V116.736ZM75.4065 123.666H81.8745V116.098H84.1625V123.204C84.1625 124.069 83.9865 124.656 83.6345 124.964C83.2971 125.257 82.6591 125.404 81.7205 125.404H75.5605C74.6218 125.404 73.9911 125.257 73.6685 124.964C73.3165 124.656 73.1405 124.069 73.1405 123.204V116.098H75.4065V123.666ZM95.3264 121.664L93.1484 117.792L91.0584 121.664H95.3264ZM92.1804 116.098H94.3584L99.9684 125.404H97.4164L96.2504 123.358H90.0904L88.9244 125.404H86.6584L92.1804 116.098ZM102.047 116.098H103.609L111.507 122.28V116.098H113.553V125.404H111.991L104.115 119.134V125.404H102.047V116.098ZM123.011 125.404H120.745V117.77H116.257V116.098H127.521V117.77H123.011V125.404ZM132.468 123.666H138.936V116.098H141.224V123.204C141.224 124.069 141.048 124.656 140.696 124.964C140.358 125.257 139.72 125.404 138.782 125.404H132.622C131.683 125.404 131.052 125.257 130.73 124.964C130.378 124.656 130.202 124.069 130.202 123.204V116.098H132.468V123.666ZM145.128 116.098H146.954L151.508 121.62L156.04 116.098H157.866V125.404H155.754V119.002L151.596 124.282H151.156L146.954 119.156V125.404H145.128V116.098Z" fill="white"/>
<circle cx="142.962" cy="73.1827" r="33.5385" fill="#0532AC" stroke="white"/>
<path d="M128.62 64.3439H132.82V82.4039H128.62V64.3439ZM150.068 82.4039H145.868V67.5639H137.573V64.3439H158.398V67.5639H150.068V82.4039Z" fill="white"/>
<circle cx="149.769" cy="13.6154" r="9.71154" fill="url(#paint0_linear_323_310)" stroke="white"/>
<circle cx="10.2115" cy="127.644" r="9.71154" fill="url(#paint1_linear_323_310)" stroke="white"/>
<defs>
<linearGradient id="paint0_linear_323_310" x1="149.769" y1="3.40384" x2="149.769" y2="23.8269" gradientUnits="userSpaceOnUse">
<stop stop-color="#0C6635"/>
<stop offset="1" stop-color="#7CBE41"/>
</linearGradient>
<linearGradient id="paint1_linear_323_310" x1="10.2115" y1="117.433" x2="10.2115" y2="137.856" gradientUnits="userSpaceOnUse">
<stop stop-color="#CB3427"/>
<stop offset="1" stop-color="#991A1E"/>
</linearGradient>
</defs>
</svg>
